<?xml version="1.0" encoding="UTF-8"?>
<svg xmlns="http://www.w3.org/2000/svg" xmlns:xlink="http://www.w3.org/1999/xlink" width="193pt" height="193pt" viewBox="0 0 193 193" version="1.1">
<g id="surface1">
<path style=" stroke:none;fill-rule:evenodd;fill:rgb(100%,100%,100%);fill-opacity:1;color:#fff" d="M 0 0.242188 L 192.757813 0.242188 L 192.757813 193 L 0 193 L 0 0.242188 "/>
<path style=" stroke:none;fill-rule:evenodd;fill:rgb(13.699341%,12.199402%,12.5%);fill-opacity:1;" d="M 112.851563 83.566406 L 113.078125 83.109375 C 113.183594 83.007813 113.335938 82.980469 113.539063 83.058594 C 114.632813 83.363281 114.761719 84.382813 115.09375 85.097656 C 115.371094 84.359375 116.035156 83.109375 116.417969 82.855469 C 116.519531 82.828125 116.902344 82.703125 117.179688 82.804688 C 117.511719 82.828125 117.765625 83.109375 117.921875 83.3125 L 117.765625 83.824219 C 117.410156 83.824219 117.359375 83.3125 116.851563 83.3125 C 116.722656 83.3125 116.621094 83.363281 116.492188 83.414063 L 114.9375 86.039063 L 114.277344 84.484375 C 113.996094 84.128906 113.488281 83.976563 112.902344 83.722656 C 112.902344 83.695313 112.902344 83.617188 112.851563 83.566406 Z M 115.984375 103.207031 L 116.1875 102.722656 C 116.316406 102.644531 116.46875 102.621094 116.671875 102.671875 C 117.765625 102.976563 117.867188 104.023438 118.226563 104.734375 C 118.503906 103.96875 119.167969 102.722656 119.523438 102.492188 C 119.652344 102.441406 120.035156 102.339844 120.3125 102.417969 C 120.644531 102.46875 120.898438 102.722656 121.054688 102.953125 L 120.898438 103.433594 C 120.542969 103.433594 120.492188 102.953125 119.957031 102.953125 C 119.855469 102.953125 119.753906 102.976563 119.625 103.027344 L 118.070313 105.675781 L 117.410156 104.097656 C 117.128906 103.742188 116.621094 103.613281 116.035156 103.359375 C 116.035156 103.308594 116.035156 103.257813 115.984375 103.207031 Z M 171.464844 92.050781 L 171.667969 91.589844 C 171.796875 91.488281 171.949219 91.464844 172.152344 91.539063 C 173.246094 91.847656 173.351563 92.863281 173.707031 93.605469 C 173.984375 92.839844 174.648438 91.589844 175.03125 91.335938 C 175.132813 91.3125 175.515625 91.183594 175.796875 91.285156 C 176.125 91.3125 176.382813 91.589844 176.535156 91.796875 L 176.382813 92.304688 C 176.023438 92.304688 175.972656 91.796875 175.4375 91.796875 C 175.335938 91.796875 175.210938 91.847656 175.105469 91.898438 L 173.554688 94.519531 L 172.890625 92.96875 C 172.609375 92.609375 172.074219 92.457031 171.515625 92.203125 C 171.515625 92.175781 171.515625 92.101563 171.464844 92.050781 Z M 123.523438 90.621094 L 123.726563 90.164063 C 123.855469 90.0625 124.007813 90.035156 124.210938 90.113281 C 125.308594 90.421875 125.410156 91.4375 125.765625 92.175781 C 126.046875 91.414063 126.707031 90.164063 127.089844 89.910156 C 127.191406 89.886719 127.574219 89.757813 127.855469 89.859375 C 128.1875 89.886719 128.441406 90.164063 128.59375 90.367188 L 128.441406 90.878906 C 128.085938 90.878906 128.03125 90.367188 127.496094 90.367188 C 127.394531 90.367188 127.269531 90.421875 127.164063 90.472656 L 125.613281 93.09375 L 124.949219 91.539063 C 124.671875 91.183594 124.136719 91.03125 123.574219 90.777344 C 123.574219 90.75 123.574219 90.675781 123.523438 90.621094 Z M 106.941406 85.707031 L 107.246094 85.453125 C 107.730469 85.605469 107.398438 86.089844 107.5 86.445313 C 107.550781 86.625 107.78125 86.953125 108.136719 87.058594 C 108.265625 87.058594 108.441406 86.953125 108.546875 86.90625 C 109.132813 86.546875 108.851563 85.859375 108.546875 85.402344 C 108.546875 85.324219 108.671875 85.148438 108.75 85.019531 L 109.589844 86.496094 C 109.945313 86.90625 110.125 86.699219 110.304688 86.625 C 110.683594 86.320313 110.125 85.683594 109.945313 85.554688 L 110.226563 85.070313 C 110.53125 85.605469 111.144531 86.445313 110.480469 87.058594 C 110.40625 87.109375 110.304688 87.160156 110.097656 87.210938 C 109.589844 87.261719 109.410156 86.855469 109.054688 86.625 C 108.980469 86.777344 109.003906 86.980469 108.800781 87.210938 C 108.75 87.261719 108.671875 87.3125 108.546875 87.363281 C 108.316406 87.464844 107.984375 87.515625 107.679688 87.414063 C 106.941406 87.210938 107.347656 85.9375 106.941406 85.707031 Z M 137.023438 100.660156 C 157.097656 104.226563 168.355469 101.296875 172.28125 98.851563 C 172.40625 99.71875 172.992188 100.378906 173.910156 100.683594 C 174.292969 100.785156 174.777344 100.863281 175.285156 100.8125 C 177.273438 100.683594 177.65625 99.386719 178.597656 98.542969 C 179.515625 99.488281 179.539063 99.972656 180.6875 100.148438 C 181.144531 100.378906 182.035156 100.199219 182.519531 99.769531 C 184.914063 97.679688 183.972656 93.347656 182.648438 90.472656 C 182.773438 90.445313 182.953125 90.445313 182.953125 90.445313 C 183.183594 90.472656 183.410156 90.828125 183.640625 90.597656 L 181.78125 87.644531 L 180.507813 89.554688 L 181.375 90.519531 C 181.296875 92.941406 183.132813 95.410156 183.105469 97.550781 C 183.003906 97.753906 182.953125 97.804688 182.597656 98.011719 C 182.0625 98.238281 181.375 98.316406 180.6875 98.011719 C 179.871094 97.578125 179.105469 96.941406 179.210938 96.203125 C 179.105469 96.203125 179.210938 96.226563 179.105469 96.226563 C 178.367188 97.09375 177.960938 98.1875 176.6875 98.773438 C 175.71875 98.925781 174.46875 98.902344 173.78125 98.316406 C 173.425781 97.578125 173.144531 97.347656 173.375 96.53125 C 172.179688 97.246094 169.859375 99.488281 166.699219 99.5625 C 165.425781 100.097656 152.972656 102.773438 136.972656 98.773438 L 134.605469 95.183594 C 133.6875 95.183594 133.101563 95.667969 132.386719 96.050781 C 130.144531 97.449219 129.585938 99.996094 129.917969 102.085938 C 127.726563 102.953125 125.179688 103.613281 123.191406 104.710938 C 120.898438 105.832031 118.605469 107.230469 116.519531 108.503906 C 115.167969 108.707031 113.5625 108.808594 112.546875 108.148438 C 112.417969 108.019531 112.265625 107.84375 112.0625 107.613281 C 111.527344 106.570313 112.011719 105.398438 112.570313 104.65625 C 111.449219 106.136719 110.839844 107.433594 112.113281 108.964844 C 113.027344 110.007813 114.914063 110.160156 116.46875 110.160156 C 118.453125 109.449219 119.777344 108.632813 121.589844 107.664063 C 125.28125 105.675781 130.046875 102.746094 135.242188 104.554688 L 135.519531 102.671875 C 135.421875 102.570313 135.367188 102.519531 135.292969 102.46875 C 134.300781 102.109375 133.203125 102.109375 132.183594 101.753906 C 131.0625 101.246094 130.808594 100.632813 130.679688 99.71875 C 131.164063 98.925781 131.546875 98.1875 132.515625 97.375 C 132.921875 97.144531 133.636719 96.941406 134.09375 97.195313 L 135.292969 99.640625 C 135.519531 99.71875 135.519531 99.792969 135.597656 99.945313 C 135.929688 100.199219 136.234375 100.378906 137.023438 100.660156 Z M 91.65625 95.003906 L 93.847656 94.085938 L 95.300781 101.78125 C 94.078125 101.628906 93.820313 101.21875 93.160156 100.40625 C 91.808594 98.597656 91.632813 97.015625 91.65625 95.003906 Z M 100.878906 88.101563 C 101.105469 88.152344 101.234375 88.253906 101.363281 88.484375 C 101.363281 88.535156 101.363281 88.636719 101.234375 88.6875 L 100.011719 88.535156 C 100.316406 88.203125 100.164063 88.128906 100.878906 88.101563 Z M 101.972656 88.535156 C 102.203125 88.535156 102.382813 88.585938 102.558594 88.714844 C 102.507813 88.992188 102.101563 88.765625 101.820313 88.714844 C 101.871094 88.558594 101.820313 88.609375 101.972656 88.535156 Z M 134.09375 109.269531 L 134.070313 108.808594 L 144.105469 105.21875 L 144.132813 105.753906 Z M 124.390625 100.40625 C 124.875 99.207031 125.410156 99.234375 125.917969 98.648438 C 125.636719 99.285156 124.617188 100.328125 125.382813 100.734375 C 125.460938 100.761719 125.585938 100.8125 125.738281 100.8125 C 125.867188 100.734375 125.996094 100.632813 126.046875 100.457031 C 126.148438 100.734375 126.046875 101.09375 125.738281 101.296875 C 125.636719 101.347656 125.359375 101.371094 125.203125 101.320313 C 124.566406 101.246094 124.441406 100.609375 124.390625 100.40625 Z M 170.472656 105.117188 C 170.800781 105.039063 171.058594 104.632813 171.515625 104.554688 C 171.746094 104.605469 172.050781 104.785156 172.328125 104.683594 C 172.40625 104.65625 172.484375 104.554688 172.609375 104.453125 C 172.96875 104.503906 173.070313 104.8125 172.96875 105.089844 C 172.890625 105.167969 172.839844 105.242188 172.714844 105.320313 C 172.253906 105.601563 171.617188 104.988281 170.980469 105.472656 C 170.675781 105.832031 169.886719 105.777344 169.425781 105.550781 C 169.070313 105.371094 168.917969 105.269531 168.5625 105.21875 C 165.425781 105.550781 164.917969 108.222656 161.835938 108.835938 C 161.65625 108.886719 161.480469 108.910156 161.480469 108.910156 C 162.21875 108.300781 163.234375 107.84375 163.59375 107.359375 C 165.222656 105.167969 168.738281 104.402344 170.472656 105.117188 Z M 123.675781 85.605469 C 123.523438 85.554688 123.472656 85.503906 123.34375 85.425781 C 123.296875 84.867188 123.34375 84.585938 123.625 84.078125 C 124.136719 83.898438 124.238281 83.898438 124.671875 83.949219 C 124.925781 83.976563 125.152344 84.050781 125.308594 84.179688 L 125.027344 84.636719 C 124.898438 84.410156 124.464844 84.382813 124.136719 84.484375 C 124.03125 84.511719 123.804688 84.585938 123.726563 84.816406 C 124.566406 85.273438 125.28125 85.25 126.578125 84.816406 L 126.425781 85.222656 L 123.34375 86.320313 C 123.394531 85.910156 123.777344 85.9375 123.675781 85.605469 Z M 174.699219 108.097656 L 184.253906 104.785156 L 184.253906 105.242188 L 174.421875 108.65625 Z M 171.695313 89.910156 L 172.484375 87.949219 L 172.558594 88.433594 C 173.019531 88.609375 173.628906 88.6875 173.9375 89.121094 C 173.984375 89.578125 173.707031 89.886719 173.425781 90.164063 C 173.121094 90.394531 172.433594 90.496094 172.023438 90.242188 C 171.847656 90.164063 171.746094 90.089844 171.695313 89.988281 Z M 172.203125 89.273438 C 172.558594 89.171875 172.96875 89.375 173.222656 89.503906 C 173.425781 89.679688 172.839844 89.605469 172.714844 89.65625 C 172.558594 89.605469 172.203125 89.503906 172.203125 89.273438 Z M 178.445313 101.882813 L 181.195313 103.257813 L 179.84375 104.554688 L 177.144531 103.230469 Z M 118.328125 77.632813 L 119.703125 75.800781 L 121.894531 80.867188 C 121.308594 81.046875 121.230469 80.15625 120.695313 80.027344 L 121.207031 99.664063 C 121.230469 101.703125 120.085938 103.332031 119.882813 103.179688 L 118.988281 80.28125 Z M 97.515625 84.941406 L 117.179688 78.550781 L 116.976563 79.542969 L 97.746094 85.859375 Z M 94.992188 110.363281 C 95.605469 109.523438 94.738281 109.167969 95.808594 108.378906 C 95.9375 107.613281 95.808594 107.207031 95.730469 106.59375 L 88.371094 109.015625 L 88.371094 108.171875 L 95.578125 105.832031 L 95.476563 103.207031 C 93.109375 102.695313 91.808594 101.296875 90.867188 99.5625 C 90.28125 97.730469 89.925781 95.921875 90.484375 94.214844 L 93.921875 92.789063 L 91.988281 81.019531 L 90.996094 79.414063 C 90.816406 79.109375 92.675781 78.144531 93.644531 77.074219 L 95.9375 82.066406 C 95.425781 82.089844 95.148438 81.503906 94.789063 81.300781 C 94.609375 81.25 94.484375 81.351563 94.433594 81.503906 L 96.0625 91.871094 L 97.03125 91.589844 C 98.304688 91.132813 99.296875 90.214844 100.417969 89.503906 C 100.34375 89.324219 100.0625 89.425781 99.832031 89.300781 C 98.304688 88.179688 100.140625 87.925781 100.214844 87.210938 L 102.609375 87.898438 C 102.96875 88.023438 103.246094 88.460938 103.042969 88.867188 C 102.96875 89.121094 102.96875 89.300781 102.789063 89.375 C 102.304688 89.605469 101.640625 89.453125 101.054688 89.453125 C 99.984375 90.394531 98.992188 91.363281 96.980469 92.203125 L 96.367188 92.382813 L 97.03125 99.539063 C 97.03125 99.71875 97.160156 99.769531 97.3125 99.664063 C 98.152344 97.144531 98.457031 94.011719 100.878906 92.304688 C 101.386719 92.023438 101.691406 91.71875 102.253906 91.71875 C 102.382813 91.71875 102.304688 91.820313 102.507813 91.871094 C 102.609375 94.445313 99.882813 97.753906 102.433594 99.894531 C 103.605469 100.683594 105.335938 100.890625 106.789063 100.558594 C 107.984375 100.148438 109.15625 99.460938 109.335938 98.367188 C 109.71875 96.101563 109.539063 93.910156 108.671875 91.71875 L 109.539063 89.910156 C 111.90625 92.175781 109.792969 96.203125 112.214844 98.621094 C 113.105469 99.179688 114.53125 99.285156 115.804688 98.976563 C 116.265625 98.773438 116.519531 98.621094 116.621094 98.238281 C 115.320313 95.921875 114.785156 93.859375 114.453125 91.871094 C 114.378906 91.386719 113.691406 91.183594 113.613281 90.75 L 114.886719 88.992188 C 115.066406 89.707031 116.339844 90.519531 116.800781 91.464844 C 116.851563 91.589844 116.851563 91.71875 116.851563 91.71875 C 116.621094 91.769531 116.570313 91.644531 116.339844 91.566406 C 116.339844 91.566406 116.160156 91.566406 116.035156 91.589844 C 116.441406 93.707031 117.308594 96.40625 117.511719 96.761719 C 118.300781 99.082031 117.027344 99.972656 116.339844 100.457031 C 115.398438 101.066406 113.714844 101.320313 112.339844 100.941406 C 110.890625 100.558594 110.609375 99.539063 110.253906 98.492188 C 110.253906 98.265625 110.253906 98.1875 110.253906 98.113281 C 110.253906 97.933594 110.125 97.882813 109.945313 97.960938 C 109.613281 99.769531 108.878906 101.679688 106.636719 102.289063 C 104.878906 102.773438 102.96875 102.542969 101.742188 101.78125 C 99.882813 100.632813 100.214844 99.027344 100.164063 97.398438 C 100.417969 96.125 100.980469 95.15625 101.15625 93.960938 C 101.105469 93.859375 101.054688 93.859375 100.878906 93.859375 C 98.507813 96.101563 99.070313 99.664063 97.386719 102.417969 C 97.386719 103.433594 97.386719 104.378906 97.386719 105.296875 L 103.476563 103.5625 L 103.503906 104.25 L 97.4375 106.109375 C 97.4375 106.796875 97.617188 107.535156 97.03125 108.171875 L 95.960938 109.34375 Z M 77.417969 90.421875 C 77.214844 90.0625 77.316406 89.707031 77.722656 89.402344 C 77.976563 89.019531 78.640625 88.992188 79.328125 88.816406 C 79.734375 88.765625 79.582031 88.558594 79.328125 88.507813 C 79.226563 88.40625 78.917969 88.304688 78.640625 88.40625 C 78.589844 88.460938 78.511719 88.507813 78.386719 88.558594 L 78.792969 87.949219 C 79.046875 87.746094 79.53125 87.871094 79.835938 88 C 80.296875 88.355469 80.675781 88.609375 80.675781 88.867188 L 80.195313 89.273438 C 79.328125 89.273438 78.179688 89.324219 77.648438 89.910156 C 78.589844 91.464844 79.683594 93.398438 79.277344 95.257813 C 79.226563 93.65625 78.335938 91.949219 77.417969 90.421875 Z M 73.976563 115.230469 C 73.925781 114.921875 74.078125 114.71875 74.359375 114.488281 C 74.539063 114.488281 74.71875 114.542969 74.820313 114.617188 C 75.457031 115.023438 75.046875 115.890625 74.769531 116.402344 C 74.539063 116.707031 74.359375 116.988281 74.230469 117.164063 C 74.410156 116.628906 75.300781 115.714844 74.488281 115.101563 C 74.179688 114.898438 73.976563 115.40625 73.976563 115.230469 Z M 72.425781 90.214844 C 72.652344 90.140625 72.960938 90.621094 73.46875 90.675781 C 73.238281 90.953125 72.703125 90.75 72.324219 90.675781 C 72.167969 90.546875 72.324219 90.394531 72.425781 90.214844 Z M 72.527344 89.144531 C 72.601563 89.222656 72.679688 89.476563 72.679688 89.554688 C 72.703125 89.886719 73.085938 89.9375 73.542969 89.886719 C 74.257813 90.164063 73.976563 91.261719 72.933594 91.589844 C 72.476563 91.589844 72.015625 91.515625 71.734375 91.160156 C 71.480469 90.445313 72.347656 89.730469 72.527344 89.144531 Z M 64.628906 78.523438 C 64.628906 78.472656 64.730469 78.269531 64.78125 78.167969 C 70.234375 80.5625 77.417969 77.582031 83.351563 77.605469 C 82.996094 77.632813 84.804688 78.675781 80.726563 80.203125 C 81.644531 79.59375 82.105469 79.085938 82.589844 78.5 C 83.53125 77.734375 81.875 78.296875 80.398438 78.472656 C 78.539063 78.730469 76.347656 79.238281 74.308594 79.542969 C 71.683594 79.773438 69.265625 79.949219 66.691406 79.59375 C 67.101563 80.179688 67.253906 81.199219 66.515625 82.039063 C 66.667969 80.308594 65.953125 79.46875 64.628906 78.601563 Z M 61.929688 88.6875 C 63.175781 89.019531 64.578125 89.910156 64.730469 91.082031 C 65.011719 92.175781 64.730469 93.296875 64.398438 94.191406 C 64.503906 92.738281 64.707031 90.726563 62.949219 89.707031 C 62.515625 89.453125 62.3125 89.375 61.902344 89.300781 Z M 104.136719 79.085938 C 104.722656 78.753906 105.335938 78.625 106.023438 78.472656 C 106.152344 78.472656 106.507813 78.601563 106.203125 78.777344 Z M 60.476563 79.261719 C 61.039063 78.933594 61.675781 78.828125 62.363281 78.675781 C 62.488281 78.675781 62.847656 78.777344 62.539063 78.984375 Z M 59.789063 98.011719 C 66.105469 96.609375 72.652344 97.628906 79.074219 97.703125 L 69.136719 101.269531 C 66.84375 99.871094 63.023438 99.359375 59.96875 98.289063 C 59.789063 98.214844 59.6875 98.136719 59.6875 98.136719 Z M 58.03125 83.492188 C 58.210938 82.753906 58.898438 82.089844 59.179688 81.785156 C 58.921875 82.34375 58.59375 82.878906 58.464844 83.441406 C 58.488281 83.773438 58.71875 83.871094 59.050781 83.871094 C 59.230469 83.871094 59.28125 83.746094 59.457031 83.644531 C 59.484375 83.847656 59.484375 84.078125 59.28125 84.253906 C 59.128906 84.484375 58.59375 84.382813 58.363281 84.253906 C 58.183594 84.179688 57.957031 83.722656 58.03125 83.492188 Z M 55.738281 88.152344 L 83.300781 81.199219 C 83.554688 81.324219 83.25 82.089844 83.171875 82.191406 L 56.476563 88.917969 L 57.625 89.886719 L 57.625 90.367188 L 55.917969 89.9375 C 55.203125 89.679688 54.390625 89.171875 55.738281 88.152344 Z M 98.890625 80.28125 C 98.941406 79.925781 99.144531 79.519531 99.605469 79.339844 C 100.164063 79.238281 100.699219 79.1875 101.335938 79.339844 C 101.386719 79.289063 101.515625 79.210938 101.566406 79.136719 C 101.667969 78.652344 101.414063 77.863281 101.003906 77.429688 L 101.335938 77.019531 C 102.023438 77.503906 101.640625 78.730469 102.710938 79.035156 C 102.914063 79.085938 103.171875 79.1875 103.171875 79.1875 L 104.34375 78.472656 C 104.929688 78.21875 105.84375 77.558594 106.636719 77.964844 C 106.839844 78.039063 106.941406 78.117188 107.066406 78.21875 C 107.195313 78.347656 107.195313 78.777344 106.6875 79.085938 C 105.71875 79.621094 104.496094 79.519531 103.527344 79.621094 C 103.246094 79.644531 102.992188 79.925781 102.761719 80.003906 C 102.660156 80.078125 102.914063 79.746094 102.914063 79.621094 C 102.609375 79.363281 102.203125 79.441406 101.847656 79.1875 C 101.769531 79.414063 101.515625 79.773438 100.980469 79.898438 L 99.960938 79.773438 C 99.476563 79.644531 99.019531 80.359375 98.890625 80.28125 Z M 55.230469 80.484375 C 55.28125 80.128906 55.484375 79.722656 55.917969 79.542969 C 56.503906 79.414063 57.011719 79.390625 57.648438 79.542969 C 57.726563 79.492188 57.851563 79.390625 57.90625 79.339844 C 58.007813 78.855469 57.753906 78.039063 57.34375 77.605469 L 57.648438 77.226563 C 58.363281 77.710938 57.957031 78.933594 59.050781 79.238281 C 59.230469 79.261719 59.507813 79.363281 59.507813 79.363281 L 60.679688 78.675781 C 61.265625 78.398438 62.183594 77.734375 62.972656 78.167969 C 63.175781 78.21875 63.28125 78.320313 63.382813 78.398438 C 63.535156 78.550781 63.535156 78.984375 63 79.261719 C 62.054688 79.824219 60.808594 79.722656 59.867188 79.824219 C 59.585938 79.847656 59.332031 80.105469 59.101563 80.203125 C 59 80.28125 59.253906 79.925781 59.253906 79.824219 C 58.921875 79.570313 58.539063 79.644531 58.183594 79.363281 C 58.082031 79.621094 57.851563 79.976563 57.320313 80.105469 L 56.273438 79.976563 C 55.816406 79.847656 55.332031 80.5625 55.230469 80.484375 Z M 47.460938 102.390625 L 48.835938 101.015625 L 51.410156 102.007813 L 50.1875 103.589844 L 47.332031 102.542969 Z M 47.28125 117.316406 L 47.613281 116.808594 C 51.308594 115.355469 55.613281 114.007813 60.121094 113.011719 L 59.765625 113.445313 C 55.332031 114.566406 50.976563 115.765625 47.332031 117.417969 Z M 45.957031 93.65625 L 47.359375 94.238281 L 46.058594 95.003906 C 46.109375 95.003906 45.933594 93.707031 45.957031 93.65625 Z M 45.78125 107.789063 C 45.449219 106.925781 46.796875 106.671875 47.332031 106.109375 C 47.332031 105.882813 46.644531 105.957031 46.210938 105.957031 L 46.570313 105.472656 L 47.945313 105.472656 C 48.402344 105.550781 47.96875 106.058594 47.714844 106.210938 C 47.207031 106.671875 46.492188 106.796875 46.316406 107.257813 C 46.953125 107.816406 49.753906 107.511719 50.363281 107.101563 C 50.1875 107.636719 49.191406 107.917969 48.453125 108.019531 C 47.765625 108.070313 46.316406 108.25 45.78125 107.789063 Z M 41.472656 110.492188 L 42.925781 109.242188 L 46.007813 110.339844 L 44.660156 111.664063 Z M 41.347656 110.644531 L 40.097656 111.867188 L 37.21875 110.71875 L 38.570313 109.546875 Z M 36.734375 100.328125 C 36.8125 100.226563 36.8125 100.097656 36.914063 99.972656 C 38.1875 100.351563 38.824219 101.269531 39.105469 102.390625 C 39.054688 102.925781 39.285156 103.433594 38.902344 103.792969 C 39.105469 102.722656 38.417969 101.472656 37.398438 100.890625 C 37.015625 100.660156 36.8125 100.609375 36.683594 100.378906 Z M 78.664063 101.933594 L 78.894531 101.703125 C 79.402344 101.855469 79.046875 102.316406 79.175781 102.671875 C 79.226563 102.875 79.453125 103.207031 79.8125 103.28125 C 79.914063 103.28125 80.117188 103.179688 80.195313 103.128906 C 80.78125 102.796875 80.5 102.085938 80.195313 101.652344 C 80.195313 101.550781 80.320313 101.371094 80.398438 101.246094 L 81.265625 102.746094 C 81.621094 103.128906 81.796875 102.925781 81.953125 102.875 C 82.359375 102.570313 81.796875 101.933594 81.621094 101.78125 L 81.875 101.296875 C 82.179688 101.855469 82.816406 102.695313 82.128906 103.308594 C 82.078125 103.359375 81.953125 103.410156 81.773438 103.433594 C 81.265625 103.484375 81.085938 103.105469 80.726563 102.875 C 80.652344 103.027344 80.675781 103.230469 80.449219 103.433594 C 80.398438 103.484375 80.320313 103.539063 80.195313 103.613281 C 79.988281 103.714844 79.632813 103.742188 79.328125 103.664063 C 78.613281 103.433594 79.074219 102.160156 78.664063 101.933594 Z M 36.304688 87.492188 L 36.53125 87.210938 C 37.042969 87.390625 36.683594 87.847656 36.8125 88.203125 C 36.863281 88.40625 37.09375 88.738281 37.449219 88.839844 C 37.550781 88.839844 37.753906 88.714844 37.855469 88.6875 C 38.445313 88.332031 38.164063 87.617188 37.855469 87.183594 C 37.855469 87.082031 37.960938 86.90625 38.035156 86.777344 L 38.902344 88.28125 C 39.257813 88.6875 39.4375 88.460938 39.613281 88.40625 C 39.996094 88.101563 39.4375 87.464844 39.257813 87.3125 L 39.511719 86.828125 C 39.820313 87.363281 40.457031 88.230469 39.769531 88.839844 C 39.71875 88.867188 39.613281 88.917969 39.410156 88.992188 C 38.902344 89.019531 38.722656 88.636719 38.367188 88.40625 C 38.289063 88.558594 38.316406 88.765625 38.113281 88.992188 C 38.035156 89.019531 37.960938 89.070313 37.855469 89.144531 C 37.628906 89.222656 37.273438 89.273438 36.964844 89.195313 C 36.253906 88.96875 36.710938 87.667969 36.304688 87.492188 Z M 34.75 79.492188 C 35.183594 79.3125 36.253906 80.714844 36.480469 81.480469 C 36.480469 81.503906 36.761719 80.257813 37.703125 79.441406 C 37.804688 79.339844 38.113281 79.339844 38.390625 79.339844 C 38.671875 79.363281 38.976563 79.59375 39.078125 79.847656 C 39.105469 80.027344 39.027344 80.15625 38.851563 80.230469 C 38.75 80.230469 38.367188 80.179688 38.316406 79.898438 L 37.855469 79.847656 C 36.890625 80.382813 36.964844 81.65625 36.429688 82.550781 L 35.4375 80.765625 L 34.46875 80.382813 C 34.46875 80.054688 34.238281 79.824219 34.75 79.492188 Z M 28.433594 91.488281 C 28.484375 90.800781 28.609375 90.546875 28.941406 90.0625 L 29.042969 90.472656 C 29.042969 90.648438 28.585938 92.023438 28.8125 92.101563 C 28.941406 92.101563 29.042969 92.101563 29.121094 92.023438 C 29.246094 92.175781 29.121094 92.304688 29.042969 92.484375 C 29.042969 92.484375 28.941406 92.609375 28.8125 92.636719 C 28.710938 92.636719 28.585938 92.609375 28.457031 92.535156 C 28.253906 92.125 28.382813 91.488281 28.433594 91.488281 Z M 26.011719 105.804688 L 33.425781 103.613281 L 33.324219 103.996094 L 25.933594 106.1875 Z M 20.941406 86.0625 L 27.667969 83.515625 C 25.808594 82.957031 23.71875 83.464844 21.707031 83.464844 L 22.75 81.808594 C 24.714844 81.605469 27.3125 81.378906 29.273438 81.9375 C 29.449219 83.1875 28.125 84.5625 26.597656 85.097656 Z M 65.570313 109.015625 C 65.46875 108.554688 64.195313 107.945313 67.8125 107.433594 C 67.992188 107.382813 68.117188 107.359375 67.992188 107.207031 L 67.304688 106.925781 C 67.101563 106.925781 67.074219 107 66.820313 107.101563 C 66.871094 106.695313 67.175781 106.519531 67.710938 106.390625 C 68.425781 106.390625 68.910156 106.796875 69.136719 107.308594 L 68.859375 107.84375 C 68.296875 108.046875 67.152344 107.945313 66.589844 108.171875 C 65.699219 108.503906 67.839844 110.261719 67 111.332031 C 66.71875 110.210938 66.261719 109.546875 65.570313 109.015625 Z M 20.839844 107.894531 C 20.738281 107.433594 19.492188 106.847656 23.109375 106.339844 C 23.261719 106.289063 23.386719 106.261719 23.261719 106.085938 L 22.574219 105.832031 C 22.367188 105.832031 22.34375 105.90625 22.089844 106.007813 C 22.140625 105.601563 22.445313 105.421875 22.980469 105.296875 C 23.71875 105.296875 24.175781 105.703125 24.40625 106.210938 L 24.128906 106.746094 C 23.566406 106.949219 22.421875 106.847656 21.859375 107.050781 C 20.992188 107.382813 23.109375 109.167969 22.269531 110.238281 C 21.988281 109.117188 21.527344 108.453125 20.839844 107.894531 Z M 77.492188 85.148438 L 77.722656 84.664063 C 77.824219 84.585938 77.976563 84.5625 78.179688 84.636719 C 79.277344 84.941406 79.378906 85.960938 79.734375 86.675781 C 80.015625 85.910156 80.675781 84.664063 81.035156 84.433594 C 81.160156 84.382813 81.542969 84.28125 81.824219 84.359375 C 82.15625 84.410156 82.410156 84.664063 82.5625 84.890625 L 82.410156 85.402344 C 82.054688 85.402344 82.003906 84.890625 81.46875 84.890625 C 81.339844 84.890625 81.265625 84.941406 81.136719 84.96875 L 79.582031 87.617188 L 78.917969 86.039063 C 78.640625 85.707031 78.128906 85.554688 77.542969 85.300781 C 77.542969 85.25 77.542969 85.199219 77.492188 85.148438 Z M 19.796875 95.488281 L 20.027344 95.003906 C 20.152344 94.929688 20.28125 94.902344 20.511719 94.980469 C 21.605469 95.285156 21.707031 96.304688 22.0625 97.042969 C 22.34375 96.253906 22.980469 95.003906 23.386719 94.800781 C 23.488281 94.75 23.871094 94.621094 24.152344 94.699219 C 24.484375 94.75 24.738281 95.003906 24.890625 95.234375 L 24.738281 95.742188 C 24.382813 95.742188 24.304688 95.234375 23.796875 95.234375 C 23.695313 95.234375 23.566406 95.285156 23.464844 95.335938 L 21.910156 97.960938 L 21.25 96.378906 C 20.96875 96.050781 20.433594 95.894531 19.871094 95.640625 C 19.871094 95.617188 19.871094 95.539063 19.796875 95.488281 Z M 17.402344 110.390625 C 17.9375 108.53125 18.828125 106.390625 20.511719 105.089844 C 23.414063 103.433594 26.726563 101.246094 30.929688 101.933594 C 32.277344 102.160156 33.273438 102.695313 34.417969 102.902344 C 35.183594 102.519531 35.003906 101.347656 34.773438 100.710938 C 32.964844 99.769531 29.78125 99.769531 29.042969 97.832031 C 29.296875 96.710938 30.828125 96.101563 32 95.667969 C 32.457031 95.515625 32.863281 95.488281 33.195313 95.488281 L 34.699219 98.367188 C 35.71875 99.460938 37.882813 99.410156 39.640625 99.105469 C 41.320313 98.648438 42.519531 98.1875 43.96875 97.703125 L 44.480469 102.695313 C 38.1875 105.652344 28.914063 105.421875 24.816406 111.050781 C 23.59375 112.09375 21.324219 112.910156 19.3125 112.453125 C 19.082031 112.351563 18.957031 112.300781 18.777344 112.273438 C 18.039063 111.867188 17.632813 111.230469 17.402344 110.390625 Z M 16.152344 91.003906 L 40.785156 83.773438 C 41.066406 83.898438 40.863281 84.433594 40.8125 84.5625 L 15.949219 91.617188 C 15.59375 92.175781 17.425781 92.304688 17.53125 92.328125 L 17.65625 92.761719 L 15.492188 92.382813 C 14.929688 91.644531 15.441406 91.261719 16.152344 91.003906 Z M 13.886719 102.824219 C 13.910156 102.035156 14.90625 101.449219 15.058594 101.015625 C 14.929688 101.527344 14.929688 101.269531 14.445313 102.417969 C 14.34375 102.976563 14.652344 102.953125 14.753906 102.976563 C 14.878906 102.976563 15.160156 102.976563 15.210938 102.824219 C 15.414063 103.054688 15.210938 103.359375 14.929688 103.539063 C 14.804688 103.589844 14.574219 103.589844 14.421875 103.539063 C 13.964844 103.28125 13.808594 102.976563 13.886719 102.824219 Z M 8.511719 105.296875 C 8.359375 102.847656 10.421875 100.863281 11.925781 99.15625 C 10.601563 98.621094 9.886719 97.375 10.066406 95.972656 C 10.421875 94.214844 11.160156 92.914063 12.230469 91.464844 C 12.792969 90.675781 13.171875 90.011719 13.785156 89.300781 C 14.191406 90.421875 12.792969 91.335938 12.332031 92.40625 C 11.519531 93.730469 10.828125 95.285156 11.621094 96.53125 C 12.101563 97.144531 13.070313 97.5 14.066406 97.449219 L 15.289063 95.410156 C 16.027344 95.921875 15.464844 96.839844 15.160156 97.578125 C 14.675781 98.164063 14.242188 98.851563 13.378906 99.15625 C 11.519531 99.386719 11.085938 100.8125 10.066406 101.78125 C 9.378906 102.953125 8.613281 104.429688 9.25 105.550781 C 9.734375 106.1875 10.523438 106.59375 11.441406 106.722656 C 18.34375 106.109375 21.148438 100.964844 27.972656 99.894531 C 27.667969 97.679688 28.863281 95.285156 31.4375 94.394531 C 32.355469 94.035156 33.246094 93.859375 34.214844 93.550781 C 34.34375 93.550781 34.445313 93.605469 34.546875 93.679688 C 35.4375 94.699219 34.800781 96.53125 36.636719 97.195313 C 39.335938 97.578125 41.804688 96.53125 43.765625 95.769531 L 43.4375 93.324219 C 42.441406 93.171875 40.941406 92.484375 39.945313 93.042969 C 37.933594 93.425781 35.84375 92.914063 33.859375 92.914063 L 35.082031 91.335938 C 37.578125 90.519531 40.53125 90.648438 43.257813 91.285156 L 41.804688 78.90625 L 43.027344 77.175781 C 43.539063 77.65625 43.714844 78.398438 44.25 78.90625 C 44.761719 80.003906 45.625 80.917969 45.753906 82.066406 C 45.089844 82.140625 44.988281 81.582031 44.453125 81.300781 C 44.328125 81.300781 44.25 81.300781 44.175781 81.402344 L 45.5 91.746094 L 51.410156 92.992188 L 50.542969 80.105469 L 50.058594 78.398438 L 51.5625 76.867188 C 52.453125 78.269531 53.320313 80.535156 53.625 82.269531 C 53.089844 82.242188 52.988281 81.757813 52.453125 81.632813 L 53.675781 93.324219 L 58.871094 93.679688 C 59.355469 93.679688 59.128906 94.085938 59 94.214844 C 58.71875 94.621094 58.261719 94.851563 58.058594 95.234375 L 54.007813 95.105469 C 53.394531 98.621094 55.765625 103.257813 53.089844 106.773438 L 51.945313 95.359375 C 50.339844 94.929688 47.894531 96.152344 46.367188 96.6875 C 46.367188 99.4375 46.722656 103.003906 43.589844 104.886719 C 41.855469 106.109375 38.722656 106.238281 36.636719 107.101563 L 34.773438 110.71875 C 34.0625 111.6875 34.546875 113.878906 35.4375 114.566406 C 37.296875 115.890625 40.175781 115.738281 42.570313 115.023438 C 48.402344 112.988281 52.582031 108.582031 58.03125 106.058594 C 59.128906 105.398438 60.09375 105.089844 61.140625 104.582031 C 62.898438 103.765625 64.679688 103.257813 66.335938 102.417969 C 64.550781 101.066406 60.09375 101.320313 58.515625 99.539063 C 57.90625 98.417969 58.3125 97.144531 59.230469 96.40625 C 67.507813 94.214844 76.753906 96.023438 85.1875 96.226563 C 85.390625 96.277344 85.570313 96.328125 85.570313 96.328125 L 84.855469 97.984375 L 80.242188 99.386719 L 71.226563 102.824219 C 71.097656 103.15625 71.683594 103.308594 71.914063 103.511719 C 72.628906 104.175781 73.113281 105.242188 73.113281 106.1875 C 72.652344 106.773438 71.507813 106.238281 70.691406 106.160156 C 69.367188 105.703125 68.601563 105.039063 68.117188 104.125 L 64.273438 105.296875 C 62.695313 107.28125 60.273438 110.160156 61.496094 112.859375 C 62.414063 114.058594 63.863281 114.3125 65.546875 114.160156 C 71.429688 109.855469 78.308594 106.109375 87.199219 104.632813 C 87.53125 104.351563 87.808594 104.277344 87.886719 103.996094 L 84.015625 80.332031 L 83.453125 79.035156 L 85.390625 77.300781 C 86.433594 78.753906 87.632813 80.359375 88.117188 82.191406 C 87.988281 82.242188 87.886719 82.242188 87.683594 82.140625 L 86.84375 81.453125 C 86.664063 81.402344 86.535156 81.480469 86.484375 81.65625 L 89.183594 98.214844 C 89.566406 100.507813 89.3125 101.527344 88.980469 103.15625 C 88.34375 104.988281 87.351563 106.3125 85.441406 106.925781 C 76.066406 107.410156 72.375 113.726563 64.960938 115.484375 C 62.898438 115.175781 61.496094 114.160156 60.859375 112.988281 C 59.941406 110.464844 61.902344 108.148438 63 106.058594 C 60.605469 106.414063 58.59375 108.019531 56.453125 109.066406 C 50.542969 111.992188 46.722656 117.523438 38.492188 117.445313 C 36.253906 117.140625 35.257813 116.347656 34.214844 115.101563 C 33.5 113.523438 33.5 111.867188 34.113281 110.390625 L 35.742188 107.359375 C 33.347656 107.410156 31.03125 108.503906 29.347656 109.601563 C 26.699219 111.511719 24.839844 114.441406 20.765625 114.058594 C 19.007813 113.648438 17.988281 112.9375 17.25 111.816406 C 16.484375 109.980469 17.476563 108.097656 18.292969 106.519531 C 18.242188 106.441406 18.242188 106.492188 18.066406 106.492188 C 16.484375 107.585938 14.269531 108.582031 11.847656 108.25 C 10.191406 107.894531 9.199219 106.925781 8.742188 105.933594 C 8.742188 105.675781 8.511719 105.449219 8.511719 105.296875 "/>
</g>
</svg>
